<svg width="192" height="192" viewBox="0 0 192 192" fill="none" xmlns="http://www.w3.org/2000/svg">
  <defs>
    <linearGradient id="bg" x1="20" y1="20" x2="172" y2="172" gradientUnits="userSpaceOnUse">
      <stop stop-color="#FB923C"/>
      <stop offset="1" stop-color="#F97316"/>
    </linearGradient>
  </defs>
  <rect width="192" height="192" rx="42" fill="#0F172A"/>
  <rect x="20" y="20" width="152" height="152" rx="34" fill="url(#bg)"/>
  <path d="M69 131V61H93.5C107.2 61 116 69.8 116 82C116 94.2 107.2 103 93.5 103H82.5V131H69ZM82.5 91H92.5C97.6 91 102 87.4 102 82C102 76.6 97.6 73 92.5 73H82.5V91Z" fill="#0B1120"/>
  <path d="M125 131L106 61H119.5L131 110L142.5 61H156L137 131H125Z" fill="#0B1120"/>
</svg>
