<svg width="120" height="40" viewBox="0 0 120 40" fill="none" xmlns="http://www.w3.org/2000/svg">
  <rect x="0.5" y="0.5" width="119" height="39" rx="10" fill="#111827"/>
  <rect x="0.5" y="0.5" width="119" height="39" rx="10" stroke="#334155"/>
  <circle cx="47" cy="20" r="9" fill="#FB923C"/>
  <circle cx="59" cy="20" r="9" fill="#F59E0B" fill-opacity="0.85"/>
  <path d="M53 12.9C54.9 14.5 56.1 17.1 56.1 20C56.1 22.9 54.9 25.5 53 27.1C51.1 25.5 49.9 22.9 49.9 20C49.9 17.1 51.1 14.5 53 12.9Z" fill="#F97316"/>
  <path d="M72.7 15.2H74.4L76.7 21.1L79 15.2H80.7V24.8H79.2V17.5L76.5 24.3H76L73.2 17.5V24.8H71.8V15.2H72.7Z" fill="#F8FAFC"/>
  <path d="M85.8 18.4C87.7 18.4 88.9 19.6 88.9 21.6V24.8H87.6V24C87 24.7 86.2 25 85.1 25C83.7 25 82.6 24.2 82.6 22.9C82.6 21.6 83.6 20.8 85.3 20.8H87.5V20.7C87.5 19.8 86.9 19.3 85.8 19.3C85 19.3 84.1 19.6 83.5 20L82.9 19C83.7 18.6 84.7 18.4 85.8 18.4ZM85.4 24C86.4 24 87.2 23.5 87.5 22.6V21.9H85.4C84.2 21.9 83.8 22.4 83.8 22.9C83.8 23.6 84.4 24 85.4 24Z" fill="#F8FAFC"/>
  <path d="M91.2 15H92.6V24.8H91.2V15Z" fill="#F8FAFC"/>
  <path d="M97.8 18.4C99.7 18.4 100.9 19.6 100.9 21.6V24.8H99.6V24C99 24.7 98.2 25 97.1 25C95.7 25 94.6 24.2 94.6 22.9C94.6 21.6 95.6 20.8 97.3 20.8H99.5V20.7C99.5 19.8 98.9 19.3 97.8 19.3C97 19.3 96.1 19.6 95.5 20L94.9 19C95.7 18.6 96.7 18.4 97.8 18.4ZM97.4 24C98.4 24 99.2 23.5 99.5 22.6V21.9H97.4C96.2 21.9 95.8 22.4 95.8 22.9C95.8 23.6 96.4 24 97.4 24Z" fill="#F8FAFC"/>
</svg>
