<svg width="120" height="40" viewBox="0 0 120 40" fill="none" xmlns="http://www.w3.org/2000/svg">
  <rect x="0.5" y="0.5" width="119" height="39" rx="10" fill="#111827"/>
  <rect x="0.5" y="0.5" width="119" height="39" rx="10" stroke="#334155"/>
  <path d="M33.3 13.5H39.2C42.5 13.5 44.5 15.1 44.5 17.8C44.5 21 42 22.8 38.5 22.8H36L35.1 27H31.7L33.3 13.5ZM38.3 20.2C40.2 20.2 41.1 19.2 41.1 18C41.1 16.9 40.3 16.1 38.7 16.1H36.2L35.5 20.2H38.3Z" fill="#38BDF8"/>
  <path d="M48.5 13.5H54.4C57.7 13.5 59.7 15.1 59.7 17.8C59.7 21 57.2 22.8 53.7 22.8H51.2L50.3 27H46.9L48.5 13.5ZM53.5 20.2C55.4 20.2 56.3 19.2 56.3 18C56.3 16.9 55.5 16.1 53.9 16.1H51.4L50.7 20.2H53.5Z" fill="#0EA5E9"/>
  <path d="M63.4 13.5H66.8L64.5 27H61.1L63.4 13.5Z" fill="#F8FAFC"/>
  <path d="M71 15.6H73.3L76 22.1L80.9 15.6H83.2L81.4 27H78.2L79.2 20.7L75.8 25.2H74.7L72.7 20.6L71.6 27H68.4L71 15.6Z" fill="#F8FAFC"/>
</svg>
