<svg width="120" height="40" viewBox="0 0 120 40" fill="none" xmlns="http://www.w3.org/2000/svg">
  <rect x="0.5" y="0.5" width="119" height="39" rx="10" fill="#111827"/>
  <rect x="0.5" y="0.5" width="119" height="39" rx="10" stroke="#334155"/>
  <path d="M34.6 26L38.1 14H41.8L38.3 26H34.6Z" fill="#F8FAFC"/>
  <path d="M53.8 14.3C53.1 14.1 51.9 13.8 50.4 13.8C46.6 13.8 43.9 15.8 43.9 18.8C43.9 21 45.9 22.2 47.3 22.9C48.7 23.6 49.2 24.1 49.2 24.8C49.2 25.9 47.9 26.4 46.7 26.4C45 26.4 44.1 26.1 42.7 25.5L42.1 25.2L41.5 28.4C42.5 28.9 44.4 29.3 46.4 29.3C50.5 29.3 53.1 27.3 53.1 24.1C53.1 22.4 52.1 21.1 49.8 20C48.4 19.3 47.5 18.9 47.5 18.2C47.5 17.6 48.2 16.9 49.8 16.9C51.1 16.9 52 17.2 52.6 17.4L53 17.6L53.8 14.3Z" fill="#F8FAFC"/>
  <path d="M63.1 21.8L64.6 17.8C64.6 17.8 65 16.6 65.3 15.9L65.6 17.7L66.5 21.8H63.1ZM67.8 14H64.9C64 14 63.4 14.3 63 15.2L57.3 29H61.4C61.4 29 62.1 27 62.3 26.6H67.2C67.3 27.1 67.7 29 67.7 29H71.3L67.8 14Z" fill="#F8FAFC"/>
  <path d="M31.6 14L28 22.2L27.6 20.1C26.9 17.7 24.6 15.1 22 13.8L25.3 29H29.5L35.7 14H31.6Z" fill="#F8FAFC"/>
  <path d="M24.4 14H18.1L18 14.3C22.9 15.6 26.2 18.9 27.5 23.5L26.1 16.3C25.9 15 25.3 14 24.4 14Z" fill="#FB923C"/>
</svg>
